<svg class="logo" width="134" height="66" viewBox="0 0 134 66" fill="none" xmlns="http://www.w3.org/2000/svg">
<path d="M24.152 2.256C24.4933 1.616 25.0693 1.168 25.88 0.911999C26.6907 0.655997 27.7573 0.527996 29.08 0.527996C30.4453 0.527996 31.5333 0.655997 32.344 0.911999C33.1547 1.168 33.7093 1.616 34.008 2.256C34.3493 2.896 34.5413 3.472 34.584 3.984C34.6693 4.45333 34.712 5.17867 34.712 6.16V44.368C34.712 45.3493 34.6693 46.096 34.584 46.608C34.5413 47.0773 34.3493 47.6107 34.008 48.208C33.368 49.36 31.5547 49.936 28.568 49.936C25.624 49.936 23.9813 48.8907 23.64 46.8C21.848 48.848 19.352 49.872 16.152 49.872C12.312 49.872 8.81333 48.208 5.656 44.88C2.49867 41.5093 0.92 37.6053 0.92 33.168C0.92 28.688 2.49867 24.7627 5.656 21.392C8.856 18.0213 12.3547 16.336 16.152 16.336C19.3093 16.336 21.7627 17.4027 23.512 19.536V6.096C23.512 5.11466 23.5333 4.38933 23.576 3.92C23.6613 3.408 23.8533 2.85333 24.152 2.256ZM13.784 37.008C14.8933 38.16 16.2373 38.736 17.816 38.736C19.3947 38.736 20.696 38.16 21.72 37.008C22.7867 35.856 23.32 34.5973 23.32 33.232C23.32 31.824 22.808 30.5227 21.784 29.328C20.8027 28.1333 19.4587 27.536 17.752 27.536C16.0453 27.536 14.68 28.1333 13.656 29.328C12.632 30.48 12.12 31.76 12.12 33.168C12.12 34.576 12.6747 35.856 13.784 37.008ZM60.482 16.656C61.2927 16.912 61.954 17.36 62.466 18C63.0207 18.5973 63.298 19.5787 63.298 20.944C63.298 22.3093 62.8927 23.8027 62.082 25.424C61.2713 27.0453 60.098 27.856 58.562 27.856C57.794 27.856 57.0473 27.6853 56.322 27.344C55.6393 27.0027 54.722 26.832 53.57 26.832C52.418 26.832 51.33 27.2373 50.306 28.048C49.3247 28.8587 48.834 29.84 48.834 30.992V44.432C48.834 45.4133 48.7913 46.16 48.706 46.672C48.6633 47.1413 48.4713 47.696 48.13 48.336C47.49 49.4453 45.826 50 43.138 50C41.09 50 39.618 49.6373 38.722 48.912C38.0393 48.3147 37.6553 47.3973 37.57 46.16C37.57 45.7333 37.57 45.1147 37.57 44.304V21.84C37.57 20.8587 37.5913 20.1333 37.634 19.664C37.7193 19.152 37.9113 18.5973 38.21 18C38.8073 16.848 40.4713 16.272 43.202 16.272C45.762 16.272 47.362 16.7627 48.002 17.744C48.4713 18.4267 48.706 19.1307 48.706 19.856C48.9193 19.5573 49.218 19.1947 49.602 18.768C50.0287 18.3413 50.9033 17.7653 52.226 17.04C53.5487 16.3147 54.7007 15.952 55.682 15.952C56.706 15.952 57.5593 16.016 58.242 16.144C58.9247 16.2293 59.6713 16.4 60.482 16.656ZM83.076 16.336C86.8733 16.336 90.3507 18.0213 93.508 21.392C96.708 24.7627 98.308 28.688 98.308 33.168C98.308 37.6053 96.7293 41.5093 93.572 44.88C90.4147 48.208 87.0227 49.872 83.396 49.872C79.7693 49.872 77.188 48.848 75.652 46.8C75.3107 48.8907 73.476 49.936 70.148 49.936C67.46 49.936 65.8173 49.36 65.22 48.208C64.9213 47.568 64.7293 47.0133 64.644 46.544C64.6013 46.032 64.58 45.2853 64.58 44.304V6.096C64.58 5.11466 64.6013 4.38933 64.644 3.92C64.7293 3.408 64.9213 2.85333 65.22 2.256C65.8173 1.104 67.4813 0.527996 70.212 0.527996C72.9 0.527996 74.5213 1.104 75.076 2.256C75.4173 2.896 75.6093 3.472 75.652 3.984C75.7373 4.45333 75.78 5.17867 75.78 6.16V19.472C77.4867 17.3813 79.9187 16.336 83.076 16.336ZM77.444 37.008C78.5107 38.16 79.8333 38.736 81.412 38.736C82.9907 38.736 84.3347 38.16 85.444 37.008C86.5533 35.856 87.108 34.576 87.108 33.168C87.108 31.76 86.596 30.48 85.572 29.328C84.548 28.1333 83.1827 27.536 81.476 27.536C79.7693 27.536 78.404 28.1333 77.38 29.328C76.3987 30.5227 75.908 31.824 75.908 33.232C75.908 34.5973 76.42 35.856 77.444 37.008ZM129.655 16.656C132.172 17.7653 133.431 19.1093 133.431 20.688C133.431 21.456 133.26 22.1813 132.919 22.864C132.578 23.5467 132.407 23.9093 132.407 23.952L115.639 61.456C115.298 62.2667 114.999 62.8853 114.743 63.312C114.53 63.7387 114.167 64.144 113.655 64.528C113.143 64.912 112.503 65.104 111.735 65.104C110.967 65.104 109.836 64.784 108.343 64.144C105.826 63.0347 104.567 61.712 104.567 60.176C104.567 59.152 106.615 54.2667 110.711 45.52L97.975 24.08C97.1217 22.672 96.695 21.6267 96.695 20.944C96.695 19.5787 97.847 18.2133 100.151 16.848C101.602 15.9947 102.732 15.568 103.543 15.568C104.354 15.568 105.015 15.7387 105.527 16.08C106.039 16.4213 106.402 16.784 106.615 17.168C106.871 17.5093 108.044 19.4933 110.135 23.12C112.268 26.704 114.295 30.0533 116.215 33.168C116.428 32.4853 117.58 29.8613 119.671 25.296C121.762 20.688 122.871 18.2347 122.999 17.936C123.17 17.6373 123.426 17.2747 123.767 16.848C124.322 16.1227 125.09 15.76 126.071 15.76C127.095 15.76 128.29 16.0587 129.655 16.656Z" fill="#ff94b9" />
</svg>
